Coordinates
version=1
nRows=13
nColumns=22
inDegrees=yes

Units are S.I. units (second, meters, Newtons, ...)
If the header above contains a line with 'inDegrees', this indicates whether rotational values are in degrees (yes) or radians (no).

endheader
time	pelvis_tilt	pelvis_list	pelvis_rotation	pelvis_tx	pelvis_ty	pelvis_tz	hip_flexion_r	hip_adduction_r	hip_rotation_r	knee_angle_r	ankle_angle_r	subtalar_angle_r	hip_flexion_l	hip_adduction_l	hip_rotation_l	knee_angle_l	ankle_angle_l	subtalar_angle_l	lumbar_extension	lumbar_bending	lumbar_rotation
      1.22000000	    -13.22264574	     -0.84951714	     -1.74951594	     -0.79612487	      0.97378580	      0.19250657	     22.00119571	     -1.53372461	     -3.89825126	    -24.67703542	     19.59920197	     -1.02975370	     18.32966209	      2.81773392	     -4.04938111	    -17.59191017	     19.81959529	     -4.74072116	      5.04251378	      2.10531820	      4.12049583
      1.23000000	    -13.26561455	     -0.74935690	     -1.70682753	     -0.79548765	      0.97346826	      0.19158355	     22.32641567	     -1.71554822	     -3.86357989	    -25.26973807	     19.68882497	     -0.98559050	     18.31430756	      2.98859151	     -4.03975412	    -17.54425651	     19.85756961	     -4.78262174	      5.00495006	      1.96724230	      4.09999840
      1.24000000	    -13.31972540	     -0.61746007	     -1.68557866	     -0.79484350	      0.97311743	      0.19072709	     22.71489065	     -1.91757633	     -3.78395379	    -25.95144552	     19.79437469	     -0.93990765	     18.29815920	      3.18337772	     -4.05989705	    -17.47279343	     19.88121024	     -4.82057402	      4.97887144	      1.79354146	      4.10272556
      1.25000000	    -13.40263158	     -0.46023883	     -1.69336067	     -0.79424160	      0.97269917	      0.18993008	     23.19517101	     -2.12797813	     -3.63384750	    -26.73454286	     19.90847240	     -0.87391377	     18.31605346	      3.39565435	     -4.09155439	    -17.40597511	     19.86075595	     -4.85871856	      4.97908320	      1.59492172	      4.15604591
      1.26000000	    -13.46115029	     -0.27958393	     -1.71743626	     -0.79356815	      0.97229414	      0.18919305	     23.69977436	     -2.35595170	     -3.46896308	    -27.61359258	     20.01648241	     -0.83259814	     18.28877001	      3.62464139	     -4.16141125	    -17.30989038	     19.88462961	     -4.88038251	      4.95551975	      1.36848844	      4.20416524
      1.27000000	    -13.50903537	     -0.07313584	     -1.76593265	     -0.79285317	      0.97188333	      0.18851073	     24.24804391	     -2.59673345	     -3.25943578	    -28.59052585	     20.13002585	     -0.80747885	     18.23724457	      3.87329902	     -4.25842606	    -17.19252387	     19.90521723	     -4.89103419	      4.92103716	      1.11824420	      4.26608955
      1.28000000	    -13.53759712	      0.14832898	     -1.83412061	     -0.79210042	      0.97147891	      0.18788723	     24.83089640	     -2.83980384	     -3.01643034	    -29.66533222	     20.24351765	     -0.80002713	     18.16046008	      4.13191677	     -4.36761581	    -17.07118255	     19.92941352	     -4.89352333	      4.86104715	      0.85307717	      4.34173931
      1.29000000	    -13.54983481	      0.38100014	     -1.92032706	     -0.79129675	      0.97107759	      0.18732901	     25.44911212	     -3.08020048	     -2.74874874	    -30.83312463	     20.35529974	     -0.80895169	     18.06337368	      4.39657117	     -4.48919877	    -16.94920950	     19.95998602	     -4.89236019	      4.78163642	      0.57695074	      4.42222375
      1.30000000	    -13.55603594	      0.61627506	     -2.02125754	     -0.79044664	      0.97066768	      0.18684384	     26.11085075	     -3.30775104	     -2.46385574	    -32.08236889	     20.45971565	     -0.82764675	     17.96245614	      4.65740561	     -4.61700811	    -16.83909553	     19.99211234	     -4.89165388	      4.69690365	      0.29787628	      4.50150238
      1.31000000	    -13.54884281	      0.84333267	     -2.12402863	     -0.78955492	      0.97027015	      0.18640761	     26.79905168	     -3.51586887	     -2.18073249	    -33.39304658	     20.55957768	     -0.85870354	     17.85148434	      4.90797829	     -4.74172145	    -16.74095827	     20.03385312	     -4.89373507	      4.59403472	      0.03006856	      4.56314686
      1.32000000	    -13.52419085	      1.05611345	     -2.22616743	     -0.78860963	      0.96990509	      0.18601904	     27.50041639	     -3.69829286	     -1.90463607	    -34.74398564	     20.66008659	     -0.89951091	     17.72427510	      5.14258749	     -4.85619526	    -16.65401107	     20.07839926	     -4.90027072	      4.46724996	     -0.22171379	      4.60280510
      1.33000000	    -13.47670513	      1.24969493	     -2.32323061	     -0.78760107	      0.96959133	      0.18566614	     28.20096229	     -3.85149689	     -1.64215379	    -36.11144300	     20.75919826	     -0.94393031	     17.57354202	      5.35841875	     -4.95842576	    -16.57660046	     20.13469465	     -4.91282892	      4.31148002	     -0.44988368	      4.61314848
      1.34000000	    -13.40179906	      1.42191722	     -2.41505780	     -0.78649896	      0.96935390	      0.18535341	     28.88262695	     -3.97124036	     -1.39507839	    -37.46561191	     20.86932484	     -0.99163622	     17.38766757	      5.55402855	     -5.04564485	    -16.49949958	     20.19414290	     -4.92913495	      4.12567594	     -0.65386549	      4.59479037
